<svg width="24" height="24" viewBox="0 0 24 24" fill="none" xmlns="http://www.w3.org/2000/svg"><path d="M0 12C0 6.34315 0 3.51472 1.75736 1.75736C3.51472 0 6.34315 0 12 0C17.6569 0 20.4853 0 22.2426 1.75736C24 3.51472 24 6.34315 24 12C24 17.6569 24 20.4853 22.2426 22.2426C20.4853 24 17.6569 24 12 24C6.34315 24 3.51472 24 1.75736 22.2426C0 20.4853 0 17.6569 0 12Z" fill="#0066FF"/><g filter="url(#filter0_d_14879_8201)"><path d="M11.9043 6.03861L6.04069 11.724C6.01466 11.7493 6 11.7837 6 11.8197V16.3655C6 16.4846 6.14584 16.5447 6.23207 16.4611L11.9043 10.9612C11.9574 10.9098 12.0426 10.9098 12.0957 10.9612L17.7679 16.4611C17.8541 16.5447 18 16.4846 18 16.3655V11.8197C18 11.7837 17.9853 11.7493 17.9593 11.724L12.0957 6.03861C12.0426 5.98713 11.9574 5.98713 11.9043 6.03861Z" stroke="white" stroke-width="1.5"/></g><defs><filter id="filter0_d_14879_8201" x="3.75" y="5.25" width="16.5" height="14.999" filterUnits="userSpaceOnUse" color-interpolation-filters="sRGB"><feFlood flood-opacity="0" result="BackgroundImageFix"/><feColorMatrix in="SourceAlpha" type="matrix" values="0 0 0 0 0 0 0 0 0 0 0 0 0 0 0 0 0 0 127 0" result="hardAlpha"/><feOffset dy="1.5"/><feGaussianBlur stdDeviation="0.75"/><feColorMatrix type="matrix" values="0 0 0 0 0 0 0 0 0 0 0 0 0 0 0 0 0 0 0.25 0"/><feBlend mode="normal" in2="BackgroundImageFix" result="effect1_dropShadow_14879_8201"/><feBlend mode="normal" in="SourceGraphic" in2="effect1_dropShadow_14879_8201" result="shape"/></filter></defs></svg>